<?xml version="1.0" encoding="UTF-8" standalone="no"?>
<!DOCTYPE svg PUBLIC "-//W3C//DTD SVG 1.1//EN"
 "http://www.w3.org/Graphics/SVG/1.1/DTD/svg11.dtd">
<!-- Generated by graphviz version 2.38.0 (20140413.2041)
 -->
<!-- Title: snakemake_dag Pages: 1 -->
<svg width="742pt" height="1196pt"
 viewBox="0.00 0.00 742.00 1196.00" xmlns="http://www.w3.org/2000/svg" xmlns:xlink="http://www.w3.org/1999/xlink">
<g id="graph0" class="graph" transform="scale(1 1) rotate(0) translate(4 1192)">
<title>snakemake_dag</title>
<polygon fill="white" stroke="none" points="-4,4 -4,-1192 738,-1192 738,4 -4,4"/>
<!-- 0 -->
<g id="node1" class="node"><title>0</title>
<path fill="none" stroke="#56d8b9" stroke-width="2" d="M568.5,-828C568.5,-828 507.5,-828 507.5,-828 501.5,-828 495.5,-822 495.5,-816 495.5,-816 495.5,-804 495.5,-804 495.5,-798 501.5,-792 507.5,-792 507.5,-792 568.5,-792 568.5,-792 574.5,-792 580.5,-798 580.5,-804 580.5,-804 580.5,-816 580.5,-816 580.5,-822 574.5,-828 568.5,-828"/>
<text text-anchor="middle" x="538" y="-807.5" font-family="sans" font-size="10.00">samtools_sort</text>
</g>
<!-- 19 -->
<g id="node20" class="node"><title>19</title>
<path fill="none" stroke="#568ad8" stroke-width="2" d="M570,-756C570,-756 504,-756 504,-756 498,-756 492,-750 492,-744 492,-744 492,-732 492,-732 492,-726 498,-720 504,-720 504,-720 570,-720 570,-720 576,-720 582,-726 582,-732 582,-732 582,-744 582,-744 582,-750 576,-756 570,-756"/>
<text text-anchor="middle" x="537" y="-735.5" font-family="sans" font-size="10.00">markduplicates</text>
</g>
<!-- 0&#45;&gt;19 -->
<g id="edge31" class="edge"><title>0&#45;&gt;19</title>
<path fill="none" stroke="grey" stroke-width="2" d="M537.753,-791.697C537.643,-783.983 537.51,-774.712 537.387,-766.112"/>
<polygon fill="grey" stroke="grey" stroke-width="2" points="540.887,-766.053 537.244,-756.104 533.888,-766.153 540.887,-766.053"/>
</g>
<!-- 1 -->
<g id="node2" class="node"><title>1</title>
<path fill="none" stroke="#d86656" stroke-width="2" d="M609.5,-900C609.5,-900 504.5,-900 504.5,-900 498.5,-900 492.5,-894 492.5,-888 492.5,-888 492.5,-876 492.5,-876 492.5,-870 498.5,-864 504.5,-864 504.5,-864 609.5,-864 609.5,-864 615.5,-864 621.5,-870 621.5,-876 621.5,-876 621.5,-888 621.5,-888 621.5,-894 615.5,-900 609.5,-900"/>
<text text-anchor="middle" x="557" y="-879.5" font-family="sans" font-size="10.00">samtools_sam_to_bam</text>
</g>
<!-- 1&#45;&gt;0 -->
<g id="edge1" class="edge"><title>1&#45;&gt;0</title>
<path fill="none" stroke="grey" stroke-width="2" d="M552.303,-863.697C550.187,-855.898 547.638,-846.509 545.282,-837.829"/>
<polygon fill="grey" stroke="grey" stroke-width="2" points="548.64,-836.838 542.643,-828.104 541.884,-838.672 548.64,-836.838"/>
</g>
<!-- 14 -->
<g id="node15" class="node"><title>14</title>
<path fill="none" stroke="#b6d856" stroke-width="2" d="M588,-180C588,-180 510,-180 510,-180 504,-180 498,-174 498,-168 498,-168 498,-156 498,-156 498,-150 504,-144 510,-144 510,-144 588,-144 588,-144 594,-144 600,-150 600,-156 600,-156 600,-168 600,-168 600,-174 594,-180 588,-180"/>
<text text-anchor="middle" x="549" y="-159.5" font-family="sans" font-size="10.00">samtools_flagstat</text>
</g>
<!-- 1&#45;&gt;14 -->
<g id="edge26" class="edge"><title>1&#45;&gt;14</title>
<path fill="none" stroke="grey" stroke-width="2" d="M569.88,-863.655C576.745,-853.674 584.821,-840.637 590,-828 605.375,-790.487 610,-779.542 610,-739 610,-739 610,-739 610,-305 610,-261.609 585.657,-216.372 567.727,-188.938"/>
<polygon fill="grey" stroke="grey" stroke-width="2" points="570.427,-186.682 561.937,-180.345 564.622,-190.594 570.427,-186.682"/>
</g>
<!-- 2 -->
<g id="node3" class="node"><title>2</title>
<path fill="none" stroke="#61d856" stroke-width="2" d="M600,-972C600,-972 570,-972 570,-972 564,-972 558,-966 558,-960 558,-960 558,-948 558,-948 558,-942 564,-936 570,-936 570,-936 600,-936 600,-936 606,-936 612,-942 612,-948 612,-948 612,-960 612,-960 612,-966 606,-972 600,-972"/>
<text text-anchor="middle" x="585" y="-951.5" font-family="sans" font-size="10.00">bowtie2</text>
</g>
<!-- 2&#45;&gt;1 -->
<g id="edge2" class="edge"><title>2&#45;&gt;1</title>
<path fill="none" stroke="grey" stroke-width="2" d="M578.079,-935.697C574.925,-927.813 571.122,-918.304 567.619,-909.546"/>
<polygon fill="grey" stroke="grey" stroke-width="2" points="570.805,-908.089 563.842,-900.104 564.306,-910.689 570.805,-908.089"/>
</g>
<!-- 13 -->
<g id="node14" class="node"><title>13</title>
<path fill="none" stroke="#56d892" stroke-width="2" d="M668,-180C668,-180 630,-180 630,-180 624,-180 618,-174 618,-168 618,-168 618,-156 618,-156 618,-150 624,-144 630,-144 630,-144 668,-144 668,-144 674,-144 680,-150 680,-156 680,-156 680,-168 680,-168 680,-174 674,-180 668,-180"/>
<text text-anchor="middle" x="649" y="-159.5" font-family="sans" font-size="10.00">pileup_sh</text>
</g>
<!-- 2&#45;&gt;13 -->
<g id="edge25" class="edge"><title>2&#45;&gt;13</title>
<path fill="none" stroke="grey" stroke-width="2" d="M604.164,-935.572C613.609,-925.963 624.367,-913.302 631,-900 649.049,-863.804 650,-851.447 650,-811 650,-811 650,-811 650,-305 650,-264.995 649.598,-218.652 649.304,-190.079"/>
<polygon fill="grey" stroke="grey" stroke-width="2" points="652.804,-190.011 649.198,-180.049 645.804,-190.086 652.804,-190.011"/>
</g>
<!-- 3 -->
<g id="node4" class="node"><title>3</title>
<path fill="none" stroke="#56d85b" stroke-width="2" d="M238,-396C238,-396 158,-396 158,-396 152,-396 146,-390 146,-384 146,-384 146,-372 146,-372 146,-366 152,-360 158,-360 158,-360 238,-360 238,-360 244,-360 250,-366 250,-372 250,-372 250,-384 250,-384 250,-390 244,-396 238,-396"/>
<text text-anchor="middle" x="198" y="-375.5" font-family="sans" font-size="10.00">samtools_mpileup</text>
</g>
<!-- 5 -->
<g id="node6" class="node"><title>5</title>
<path fill="none" stroke="#d8ac56" stroke-width="2" d="M261,-324C261,-324 231,-324 231,-324 225,-324 219,-318 219,-312 219,-312 219,-300 219,-300 219,-294 225,-288 231,-288 231,-288 261,-288 261,-288 267,-288 273,-294 273,-300 273,-300 273,-312 273,-312 273,-318 267,-324 261,-324"/>
<text text-anchor="middle" x="246" y="-303.5" font-family="sans" font-size="10.00">varscan</text>
</g>
<!-- 3&#45;&gt;5 -->
<g id="edge8" class="edge"><title>3&#45;&gt;5</title>
<path fill="none" stroke="grey" stroke-width="2" d="M209.865,-359.697C215.503,-351.474 222.354,-341.483 228.569,-332.421"/>
<polygon fill="grey" stroke="grey" stroke-width="2" points="231.503,-334.331 234.271,-324.104 225.729,-330.372 231.503,-334.331"/>
</g>
<!-- 4 -->
<g id="node5" class="node"><title>4</title>
<path fill="none" stroke="#d89c56" stroke-width="2" d="M694,-1044C694,-1044 664,-1044 664,-1044 658,-1044 652,-1038 652,-1032 652,-1032 652,-1020 652,-1020 652,-1014 658,-1008 664,-1008 664,-1008 694,-1008 694,-1008 700,-1008 706,-1014 706,-1020 706,-1020 706,-1032 706,-1032 706,-1038 700,-1044 694,-1044"/>
<text text-anchor="middle" x="679" y="-1023.5" font-family="sans" font-size="10.00">spades</text>
</g>
<!-- 23 -->
<g id="node24" class="node"><title>23</title>
<path fill="none" stroke="#56d873" stroke-width="2" d="M719.5,-972C719.5,-972 666.5,-972 666.5,-972 660.5,-972 654.5,-966 654.5,-960 654.5,-960 654.5,-948 654.5,-948 654.5,-942 660.5,-936 666.5,-936 666.5,-936 719.5,-936 719.5,-936 725.5,-936 731.5,-942 731.5,-948 731.5,-948 731.5,-960 731.5,-960 731.5,-966 725.5,-972 719.5,-972"/>
<text text-anchor="middle" x="693" y="-951.5" font-family="sans" font-size="10.00">filter_contigs</text>
</g>
<!-- 4&#45;&gt;23 -->
<g id="edge38" class="edge"><title>4&#45;&gt;23</title>
<path fill="none" stroke="grey" stroke-width="2" d="M682.461,-1007.7C684.003,-999.983 685.858,-990.712 687.578,-982.112"/>
<polygon fill="grey" stroke="grey" stroke-width="2" points="691.05,-982.597 689.579,-972.104 684.186,-981.224 691.05,-982.597"/>
</g>
<!-- 17 -->
<g id="node18" class="node"><title>17</title>
<path fill="none" stroke="#97d856" stroke-width="2" d="M309,-252C309,-252 279,-252 279,-252 273,-252 267,-246 267,-240 267,-240 267,-228 267,-228 267,-222 273,-216 279,-216 279,-216 309,-216 309,-216 315,-216 321,-222 321,-228 321,-228 321,-240 321,-240 321,-246 315,-252 309,-252"/>
<text text-anchor="middle" x="294" y="-231.5" font-family="sans" font-size="10.00">bgzip</text>
</g>
<!-- 5&#45;&gt;17 -->
<g id="edge29" class="edge"><title>5&#45;&gt;17</title>
<path fill="none" stroke="grey" stroke-width="2" d="M257.865,-287.697C263.503,-279.474 270.354,-269.483 276.569,-260.421"/>
<polygon fill="grey" stroke="grey" stroke-width="2" points="279.503,-262.331 282.271,-252.104 273.729,-258.372 279.503,-262.331"/>
</g>
<!-- 6 -->
<g id="node7" class="node"><title>6</title>
<path fill="none" stroke="#56d882" stroke-width="2" d="M206,-612C206,-612 78,-612 78,-612 72,-612 66,-606 66,-600 66,-600 66,-588 66,-588 66,-582 72,-576 78,-576 78,-576 206,-576 206,-576 212,-576 218,-582 218,-588 218,-588 218,-600 218,-600 218,-606 212,-612 206,-612"/>
<text text-anchor="middle" x="142" y="-591.5" font-family="sans" font-size="10.00">createsequencedictionnary1</text>
</g>
<!-- 12 -->
<g id="node13" class="node"><title>12</title>
<path fill="none" stroke="#a7d856" stroke-width="2" d="M295,-540C295,-540 197,-540 197,-540 191,-540 185,-534 185,-528 185,-528 185,-516 185,-516 185,-510 191,-504 197,-504 197,-504 295,-504 295,-504 301,-504 307,-510 307,-516 307,-516 307,-528 307,-528 307,-534 301,-540 295,-540"/>
<text text-anchor="middle" x="246" y="-519.5" font-family="sans" font-size="10.00">realignertargetcreator</text>
</g>
<!-- 6&#45;&gt;12 -->
<g id="edge24" class="edge"><title>6&#45;&gt;12</title>
<path fill="none" stroke="grey" stroke-width="2" d="M167.441,-575.876C180.787,-566.893 197.324,-555.763 211.778,-546.034"/>
<polygon fill="grey" stroke="grey" stroke-width="2" points="214.119,-548.677 220.461,-540.19 210.211,-542.87 214.119,-548.677"/>
</g>
<!-- 22 -->
<g id="node23" class="node"><title>22</title>
<path fill="none" stroke="#566bd8" stroke-width="2" d="M226.5,-468C226.5,-468 169.5,-468 169.5,-468 163.5,-468 157.5,-462 157.5,-456 157.5,-456 157.5,-444 157.5,-444 157.5,-438 163.5,-432 169.5,-432 169.5,-432 226.5,-432 226.5,-432 232.5,-432 238.5,-438 238.5,-444 238.5,-444 238.5,-456 238.5,-456 238.5,-462 232.5,-468 226.5,-468"/>
<text text-anchor="middle" x="198" y="-447.5" font-family="sans" font-size="10.00">indelrealigner</text>
</g>
<!-- 6&#45;&gt;22 -->
<g id="edge37" class="edge"><title>6&#45;&gt;22</title>
<path fill="none" stroke="grey" stroke-width="2" d="M148.374,-575.882C155.101,-557.92 166.081,-528.892 176,-504 179.446,-495.352 183.307,-485.957 186.821,-477.511"/>
<polygon fill="grey" stroke="grey" stroke-width="2" points="190.113,-478.711 190.742,-468.135 183.655,-476.011 190.113,-478.711"/>
</g>
<!-- 7 -->
<g id="node8" class="node"><title>7</title>
<path fill="none" stroke="#d8c356" stroke-width="2" d="M554,-36C554,-36 524,-36 524,-36 518,-36 512,-30 512,-24 512,-24 512,-12 512,-12 512,-6 518,-0 524,-0 524,-0 554,-0 554,-0 560,-0 566,-6 566,-12 566,-12 566,-24 566,-24 566,-30 560,-36 554,-36"/>
<text text-anchor="middle" x="539" y="-15.5" font-family="sans" font-size="10.00">all</text>
</g>
<!-- 8 -->
<g id="node9" class="node"><title>8</title>
<path fill="none" stroke="#d8d356" stroke-width="2" d="M392,-108C392,-108 306,-108 306,-108 300,-108 294,-102 294,-96 294,-96 294,-84 294,-84 294,-78 300,-72 306,-72 306,-72 392,-72 392,-72 398,-72 404,-78 404,-84 404,-84 404,-96 404,-96 404,-102 398,-108 392,-108"/>
<text text-anchor="middle" x="349" y="-87.5" font-family="sans" font-size="10.00">bcftools_consensus</text>
</g>
<!-- 8&#45;&gt;7 -->
<g id="edge13" class="edge"><title>8&#45;&gt;7</title>
<path fill="none" stroke="grey" stroke-width="2" d="M395.479,-71.8761C428.391,-59.7505 471.924,-43.7121 502.382,-32.491"/>
<polygon fill="grey" stroke="grey" stroke-width="2" points="503.607,-35.7695 511.781,-29.0281 501.187,-29.201 503.607,-35.7695"/>
</g>
<!-- 9 -->
<g id="node10" class="node"><title>9</title>
<path fill="none" stroke="#56c1d8" stroke-width="2" d="M661,-1188C661,-1188 605,-1188 605,-1188 599,-1188 593,-1182 593,-1176 593,-1176 593,-1164 593,-1164 593,-1158 599,-1152 605,-1152 605,-1152 661,-1152 661,-1152 667,-1152 673,-1158 673,-1164 673,-1164 673,-1176 673,-1176 673,-1182 667,-1188 661,-1188"/>
<text text-anchor="middle" x="633" y="-1167.5" font-family="sans" font-size="10.00">iget_samples</text>
</g>
<!-- 10 -->
<g id="node11" class="node"><title>10</title>
<path fill="none" stroke="#ced856" stroke-width="2" d="M660.5,-1116C660.5,-1116 605.5,-1116 605.5,-1116 599.5,-1116 593.5,-1110 593.5,-1104 593.5,-1104 593.5,-1092 593.5,-1092 593.5,-1086 599.5,-1080 605.5,-1080 605.5,-1080 660.5,-1080 660.5,-1080 666.5,-1080 672.5,-1086 672.5,-1092 672.5,-1092 672.5,-1104 672.5,-1104 672.5,-1110 666.5,-1116 660.5,-1116"/>
<text text-anchor="middle" x="633" y="-1095.5" font-family="sans" font-size="10.00">trimmomatic</text>
</g>
<!-- 9&#45;&gt;10 -->
<g id="edge19" class="edge"><title>9&#45;&gt;10</title>
<path fill="none" stroke="grey" stroke-width="2" d="M633,-1151.7C633,-1143.98 633,-1134.71 633,-1126.11"/>
<polygon fill="grey" stroke="grey" stroke-width="2" points="636.5,-1126.1 633,-1116.1 629.5,-1126.1 636.5,-1126.1"/>
</g>
<!-- 10&#45;&gt;4 -->
<g id="edge7" class="edge"><title>10&#45;&gt;4</title>
<path fill="none" stroke="grey" stroke-width="2" d="M644.371,-1079.7C649.718,-1071.56 656.204,-1061.69 662.111,-1052.7"/>
<polygon fill="grey" stroke="grey" stroke-width="2" points="665.193,-1054.38 667.76,-1044.1 659.343,-1050.54 665.193,-1054.38"/>
</g>
<!-- 20 -->
<g id="node21" class="node"><title>20</title>
<path fill="none" stroke="#80d856" stroke-width="2" d="M614.5,-1044C614.5,-1044 561.5,-1044 561.5,-1044 555.5,-1044 549.5,-1038 549.5,-1032 549.5,-1032 549.5,-1020 549.5,-1020 549.5,-1014 555.5,-1008 561.5,-1008 561.5,-1008 614.5,-1008 614.5,-1008 620.5,-1008 626.5,-1014 626.5,-1020 626.5,-1020 626.5,-1032 626.5,-1032 626.5,-1038 620.5,-1044 614.5,-1044"/>
<text text-anchor="middle" x="588" y="-1023.5" font-family="sans" font-size="10.00">iget_location</text>
</g>
<!-- 10&#45;&gt;20 -->
<g id="edge32" class="edge"><title>10&#45;&gt;20</title>
<path fill="none" stroke="grey" stroke-width="2" d="M621.876,-1079.7C616.645,-1071.56 610.3,-1061.69 604.522,-1052.7"/>
<polygon fill="grey" stroke="grey" stroke-width="2" points="607.347,-1050.62 598.996,-1044.1 601.459,-1054.41 607.347,-1050.62"/>
</g>
<!-- 11 -->
<g id="node12" class="node"><title>11</title>
<path fill="none" stroke="#56d8c9" stroke-width="2" d="M392,-612C392,-612 324,-612 324,-612 318,-612 312,-606 312,-600 312,-600 312,-588 312,-588 312,-582 318,-576 324,-576 324,-576 392,-576 392,-576 398,-576 404,-582 404,-588 404,-588 404,-600 404,-600 404,-606 398,-612 392,-612"/>
<text text-anchor="middle" x="358" y="-591.5" font-family="sans" font-size="10.00">samtools_index</text>
</g>
<!-- 11&#45;&gt;7 -->
<g id="edge10" class="edge"><title>11&#45;&gt;7</title>
<path fill="none" stroke="grey" stroke-width="2" d="M374.057,-575.694C395.821,-550.359 432,-500.761 432,-451 432,-451 432,-451 432,-161 432,-111.129 474.617,-67.6479 506.06,-42.3548"/>
<polygon fill="grey" stroke="grey" stroke-width="2" points="508.451,-44.9285 514.183,-36.0182 504.146,-39.4091 508.451,-44.9285"/>
</g>
<!-- 11&#45;&gt;12 -->
<g id="edge21" class="edge"><title>11&#45;&gt;12</title>
<path fill="none" stroke="grey" stroke-width="2" d="M330.602,-575.876C316.093,-566.808 298.084,-555.552 282.415,-545.759"/>
<polygon fill="grey" stroke="grey" stroke-width="2" points="283.839,-542.522 273.504,-540.19 280.129,-548.458 283.839,-542.522"/>
</g>
<!-- 12&#45;&gt;22 -->
<g id="edge34" class="edge"><title>12&#45;&gt;22</title>
<path fill="none" stroke="grey" stroke-width="2" d="M234.135,-503.697C228.497,-495.474 221.646,-485.483 215.431,-476.421"/>
<polygon fill="grey" stroke="grey" stroke-width="2" points="218.271,-474.372 209.729,-468.104 212.497,-478.331 218.271,-474.372"/>
</g>
<!-- 13&#45;&gt;7 -->
<g id="edge14" class="edge"><title>13&#45;&gt;7</title>
<path fill="none" stroke="grey" stroke-width="2" d="M649.077,-143.958C648.342,-124.735 644.577,-93.373 629,-72 615.812,-53.9058 594.408,-40.9363 575.782,-32.3574"/>
<polygon fill="grey" stroke="grey" stroke-width="2" points="576.92,-29.036 566.353,-28.2675 574.135,-35.4579 576.92,-29.036"/>
</g>
<!-- 16 -->
<g id="node17" class="node"><title>16</title>
<path fill="none" stroke="#56b1d8" stroke-width="2" d="M608.5,-108C608.5,-108 543.5,-108 543.5,-108 537.5,-108 531.5,-102 531.5,-96 531.5,-96 531.5,-84 531.5,-84 531.5,-78 537.5,-72 543.5,-72 543.5,-72 608.5,-72 608.5,-72 614.5,-72 620.5,-78 620.5,-84 620.5,-84 620.5,-96 620.5,-96 620.5,-102 614.5,-108 608.5,-108"/>
<text text-anchor="middle" x="576" y="-87.5" font-family="sans" font-size="10.00">report_html_v2</text>
</g>
<!-- 13&#45;&gt;16 -->
<g id="edge27" class="edge"><title>13&#45;&gt;16</title>
<path fill="none" stroke="grey" stroke-width="2" d="M630.955,-143.697C621.938,-135.05 610.882,-124.449 601.057,-115.027"/>
<polygon fill="grey" stroke="grey" stroke-width="2" points="603.478,-112.499 593.837,-108.104 598.633,-117.552 603.478,-112.499"/>
</g>
<!-- 14&#45;&gt;7 -->
<g id="edge11" class="edge"><title>14&#45;&gt;7</title>
<path fill="none" stroke="grey" stroke-width="2" d="M537.954,-143.611C532.263,-133.615 525.919,-120.579 523,-108 518.194,-87.2904 522.95,-63.5861 528.496,-45.8507"/>
<polygon fill="grey" stroke="grey" stroke-width="2" points="531.884,-46.7603 531.787,-36.1659 525.256,-44.5082 531.884,-46.7603"/>
</g>
<!-- 14&#45;&gt;16 -->
<g id="edge28" class="edge"><title>14&#45;&gt;16</title>
<path fill="none" stroke="grey" stroke-width="2" d="M555.674,-143.697C558.715,-135.813 562.383,-126.304 565.761,-117.546"/>
<polygon fill="grey" stroke="grey" stroke-width="2" points="569.069,-118.694 569.403,-108.104 562.538,-116.175 569.069,-118.694"/>
</g>
<!-- 15 -->
<g id="node16" class="node"><title>15</title>
<path fill="none" stroke="#56d0d8" stroke-width="2" d="M272,-1044C272,-1044 168,-1044 168,-1044 162,-1044 156,-1038 156,-1032 156,-1032 156,-1020 156,-1020 156,-1014 162,-1008 168,-1008 168,-1008 272,-1008 272,-1008 278,-1008 284,-1014 284,-1020 284,-1020 284,-1032 284,-1032 284,-1038 278,-1044 272,-1044"/>
<text text-anchor="middle" x="220" y="-1023.5" font-family="sans" font-size="10.00">iget_reference_bowtie2</text>
</g>
<!-- 15&#45;&gt;2 -->
<g id="edge4" class="edge"><title>15&#45;&gt;2</title>
<path fill="none" stroke="grey" stroke-width="2" d="M284.414,-1012.65C360.833,-997.991 485.661,-974.051 547.644,-962.164"/>
<polygon fill="grey" stroke="grey" stroke-width="2" points="548.587,-965.547 557.749,-960.226 547.268,-958.672 548.587,-965.547"/>
</g>
<!-- 15&#45;&gt;3 -->
<g id="edge6" class="edge"><title>15&#45;&gt;3</title>
<path fill="none" stroke="grey" stroke-width="2" d="M155.753,-1015.86C122.335,-1008.5 82.4337,-995.343 53,-972 16.9286,-943.393 0,-929.038 0,-883 0,-883 0,-883 0,-521 0,-453.02 78.025,-414.431 136.115,-395.122"/>
<polygon fill="grey" stroke="grey" stroke-width="2" points="137.522,-398.346 145.978,-391.962 135.387,-391.68 137.522,-398.346"/>
</g>
<!-- 15&#45;&gt;6 -->
<g id="edge9" class="edge"><title>15&#45;&gt;6</title>
<path fill="none" stroke="grey" stroke-width="2" d="M209.226,-1007.81C193.994,-981.828 168,-930.519 168,-883 168,-883 168,-883 168,-737 168,-696.553 157.667,-650.67 150.03,-622.279"/>
<polygon fill="grey" stroke="grey" stroke-width="2" points="153.308,-621.002 147.261,-612.302 146.562,-622.873 153.308,-621.002"/>
</g>
<!-- 15&#45;&gt;8 -->
<g id="edge18" class="edge"><title>15&#45;&gt;8</title>
<path fill="none" stroke="grey" stroke-width="2" d="M284.108,-1015.9C356.401,-1001.6 464,-966.321 464,-883 464,-883 464,-883 464,-809 464,-681.861 470,-650.139 470,-523 470,-523 470,-523 470,-233 470,-181.046 422.494,-138.449 387.015,-113.88"/>
<polygon fill="grey" stroke="grey" stroke-width="2" points="388.545,-110.692 378.291,-108.028 384.646,-116.505 388.545,-110.692"/>
</g>
<!-- 15&#45;&gt;12 -->
<g id="edge23" class="edge"><title>15&#45;&gt;12</title>
<path fill="none" stroke="grey" stroke-width="2" d="M225.261,-1007.7C232.859,-981.142 246,-928.614 246,-883 246,-883 246,-883 246,-665 246,-624.996 246,-578.653 246,-550.08"/>
<polygon fill="grey" stroke="grey" stroke-width="2" points="249.5,-550.049 246,-540.049 242.5,-550.049 249.5,-550.049"/>
</g>
<!-- 15&#45;&gt;22 -->
<g id="edge36" class="edge"><title>15&#45;&gt;22</title>
<path fill="none" stroke="grey" stroke-width="2" d="M164.405,-1007.88C110.882,-987.543 38,-947.924 38,-883 38,-883 38,-883 38,-593 38,-533.286 101.112,-492.567 148.061,-470.538"/>
<polygon fill="grey" stroke="grey" stroke-width="2" points="149.554,-473.704 157.211,-466.381 146.659,-467.33 149.554,-473.704"/>
</g>
<!-- 16&#45;&gt;7 -->
<g id="edge12" class="edge"><title>16&#45;&gt;7</title>
<path fill="none" stroke="grey" stroke-width="2" d="M566.854,-71.6966C562.597,-63.6436 557.444,-53.8945 552.734,-44.9824"/>
<polygon fill="grey" stroke="grey" stroke-width="2" points="555.808,-43.3097 548.041,-36.1043 549.62,-46.5809 555.808,-43.3097"/>
</g>
<!-- 17&#45;&gt;8 -->
<g id="edge17" class="edge"><title>17&#45;&gt;8</title>
<path fill="none" stroke="grey" stroke-width="2" d="M308.165,-215.851C315.69,-205.93 324.497,-192.89 330,-180 338.413,-160.293 343.245,-136.488 345.928,-118.458"/>
<polygon fill="grey" stroke="grey" stroke-width="2" points="349.427,-118.705 347.303,-108.326 342.49,-117.764 349.427,-118.705"/>
</g>
<!-- 21 -->
<g id="node22" class="node"><title>21</title>
<path fill="none" stroke="#567bd8" stroke-width="2" d="M309,-180C309,-180 279,-180 279,-180 273,-180 267,-174 267,-168 267,-168 267,-156 267,-156 267,-150 273,-144 279,-144 279,-144 309,-144 309,-144 315,-144 321,-150 321,-156 321,-156 321,-168 321,-168 321,-174 315,-180 309,-180"/>
<text text-anchor="middle" x="294" y="-159.5" font-family="sans" font-size="10.00">tabix</text>
</g>
<!-- 17&#45;&gt;21 -->
<g id="edge33" class="edge"><title>17&#45;&gt;21</title>
<path fill="none" stroke="grey" stroke-width="2" d="M294,-215.697C294,-207.983 294,-198.712 294,-190.112"/>
<polygon fill="grey" stroke="grey" stroke-width="2" points="297.5,-190.104 294,-180.104 290.5,-190.104 297.5,-190.104"/>
</g>
<!-- 18 -->
<g id="node19" class="node"><title>18</title>
<path fill="none" stroke="#56a2d8" stroke-width="2" d="M420,-684C420,-684 310,-684 310,-684 304,-684 298,-678 298,-672 298,-672 298,-660 298,-660 298,-654 304,-648 310,-648 310,-648 420,-648 420,-648 426,-648 432,-654 432,-660 432,-660 432,-672 432,-672 432,-678 426,-684 420,-684"/>
<text text-anchor="middle" x="365" y="-663.5" font-family="sans" font-size="10.00">addorreplacereadgroups</text>
</g>
<!-- 18&#45;&gt;11 -->
<g id="edge20" class="edge"><title>18&#45;&gt;11</title>
<path fill="none" stroke="grey" stroke-width="2" d="M363.27,-647.697C362.498,-639.983 361.571,-630.712 360.711,-622.112"/>
<polygon fill="grey" stroke="grey" stroke-width="2" points="364.188,-621.706 359.71,-612.104 357.223,-622.403 364.188,-621.706"/>
</g>
<!-- 18&#45;&gt;12 -->
<g id="edge22" class="edge"><title>18&#45;&gt;12</title>
<path fill="none" stroke="grey" stroke-width="2" d="M341.746,-647.819C329.44,-638.089 314.533,-625.241 303,-612 285.989,-592.47 270.408,-567.419 259.852,-548.873"/>
<polygon fill="grey" stroke="grey" stroke-width="2" points="262.879,-547.115 254.949,-540.088 256.766,-550.526 262.879,-547.115"/>
</g>
<!-- 18&#45;&gt;22 -->
<g id="edge35" class="edge"><title>18&#45;&gt;22</title>
<path fill="none" stroke="grey" stroke-width="2" d="M386.71,-647.787C396.759,-638.414 407.641,-625.9 413,-612 418.756,-597.071 420.191,-590.293 413,-576 381.097,-512.589 301.499,-479.07 248.623,-463.202"/>
<polygon fill="grey" stroke="grey" stroke-width="2" points="249.331,-459.764 238.753,-460.351 247.389,-466.489 249.331,-459.764"/>
</g>
<!-- 19&#45;&gt;18 -->
<g id="edge30" class="edge"><title>19&#45;&gt;18</title>
<path fill="none" stroke="grey" stroke-width="2" d="M494.924,-719.876C471.202,-710.222 441.384,-698.087 416.299,-687.878"/>
<polygon fill="grey" stroke="grey" stroke-width="2" points="417.521,-684.596 406.939,-684.068 414.882,-691.08 417.521,-684.596"/>
</g>
<!-- 20&#45;&gt;2 -->
<g id="edge3" class="edge"><title>20&#45;&gt;2</title>
<path fill="none" stroke="grey" stroke-width="2" d="M587.258,-1007.7C586.928,-999.983 586.531,-990.712 586.162,-982.112"/>
<polygon fill="grey" stroke="grey" stroke-width="2" points="589.658,-981.945 585.733,-972.104 582.665,-982.245 589.658,-981.945"/>
</g>
<!-- 21&#45;&gt;8 -->
<g id="edge16" class="edge"><title>21&#45;&gt;8</title>
<path fill="none" stroke="grey" stroke-width="2" d="M307.596,-143.697C314.123,-135.389 322.068,-125.277 329.247,-116.141"/>
<polygon fill="grey" stroke="grey" stroke-width="2" points="332.135,-118.13 335.561,-108.104 326.631,-113.805 332.135,-118.13"/>
</g>
<!-- 22&#45;&gt;3 -->
<g id="edge5" class="edge"><title>22&#45;&gt;3</title>
<path fill="none" stroke="grey" stroke-width="2" d="M198,-431.697C198,-423.983 198,-414.712 198,-406.112"/>
<polygon fill="grey" stroke="grey" stroke-width="2" points="201.5,-406.104 198,-396.104 194.5,-406.104 201.5,-406.104"/>
</g>
<!-- 24 -->
<g id="node25" class="node"><title>24</title>
<path fill="none" stroke="#70d856" stroke-width="2" d="M722,-828C722,-828 692,-828 692,-828 686,-828 680,-822 680,-816 680,-816 680,-804 680,-804 680,-798 686,-792 692,-792 692,-792 722,-792 722,-792 728,-792 734,-798 734,-804 734,-804 734,-816 734,-816 734,-822 728,-828 722,-828"/>
<text text-anchor="middle" x="707" y="-807.5" font-family="sans" font-size="10.00">blast</text>
</g>
<!-- 23&#45;&gt;24 -->
<g id="edge39" class="edge"><title>23&#45;&gt;24</title>
<path fill="none" stroke="grey" stroke-width="2" d="M694.689,-935.871C697.075,-911.67 701.458,-867.211 704.299,-838.393"/>
<polygon fill="grey" stroke="grey" stroke-width="2" points="707.807,-838.484 705.305,-828.189 700.841,-837.798 707.807,-838.484"/>
</g>
<!-- 24&#45;&gt;7 -->
<g id="edge15" class="edge"><title>24&#45;&gt;7</title>
<path fill="none" stroke="grey" stroke-width="2" d="M707.198,-791.951C707.489,-765.292 708,-712.116 708,-667 708,-667 708,-667 708,-161 708,-92.3788 625.317,-50.2803 575.618,-31.174"/>
<polygon fill="grey" stroke="grey" stroke-width="2" points="576.746,-27.8592 566.153,-27.6583 574.308,-34.4212 576.746,-27.8592"/>
</g>
</g>
</svg>
